<svg width="600" height="600" viewBox="0 0 600 600" fill="none" xmlns="http://www.w3.org/2000/svg">
<g clip-path="url(#clip0_14_2)">
<path d="M320.5 145C325.833 143.833 340.1 144 354.5 154" stroke="white" stroke-linecap="round"/>
<path d="M472 133.5C446.4 83.5 374.333 68.3333 341.5 67L312 139.5C352 137.1 403 174.5 423.5 193.5L472 133.5Z" fill="#A0C6F4"/>
<path d="M466.068 130.908C443.053 87.287 376.502 73.0893 346.103 71.4431L317.757 133.693C354.848 132.218 401.57 165.326 420.295 182.063L466.068 130.908Z" fill="white"/>
<path d="M277.5 517.069C273.5 512.669 279 497.569 279 488.069L273.5 484.069L284.5 455.069L294 464.069C294.833 464.736 297.4 466.669 301 469.069C304.6 471.469 303.5 476.736 302.5 479.069L277.5 517.069Z" fill="black"/>
<path d="M294 464.069L279 488.069L276 485.569L271.5 484.569L276 477.069L287.5 457.569L294 464.069Z" fill="#F9865F"/>
<path d="M188.5 135.569C194.5 138.769 201.667 147.236 204.5 151.069L217 174.069C210.5 171.236 195.7 166.369 188.5 169.569C181.3 172.769 175.167 167.236 173 164.069C172.5 163.402 171.9 161.869 173.5 161.069C175.5 160.069 184 160.069 185.5 157.069C185.5 150.069 179 143.569 178 143.069C177 142.569 174 140.569 167.5 140.069C161 139.569 160 138.069 160 137.069C160 136.069 160 135.569 162 133.569C164 131.569 181 131.569 188.5 135.569Z" fill="#F9865F"/>
<path d="M489.5 255.569C488.3 255.969 485 259.402 483.5 261.069L467 270.069L488 279.069C493 276.236 503.2 269.969 504 267.569C505 264.569 502.5 261.569 502.5 260.569C502.5 259.569 500 257.569 499 257.069C498 256.569 498 256.569 497 256.569C496 256.569 491.667 259.569 489.5 261.069L492 258.569C493.2 256.569 492.167 255.736 491.5 255.569C491.333 255.402 490.7 255.169 489.5 255.569Z" fill="#F9865F"/>
<path d="M186 426.069C178.8 419.669 190 406.069 186 395.069L188 370.569L199 368.569C201.5 370.236 207.1 374.769 209.5 379.569C211.9 384.369 209.5 389.236 208 391.069L186 426.069Z" fill="black"/>
<path d="M186 395.569L182 388.069L198.5 379.569L186 395.569Z" fill="#F9865F"/>
<path d="M185 273.569C208.2 265.169 235 270.069 245.5 273.569L250.5 266.069L319 283.569L323.5 320.569C316 333.569 299.6 361.969 294 371.569C287 383.569 285.5 393.069 282.5 412.069C280.1 427.269 290.5 448.736 296 457.569L273 491.069C255 476.669 236.167 441.069 229 425.069C220 408.069 233.5 372.569 234.5 368.069C235.248 364.701 248.546 335.643 257.845 317.614L250.5 331.569C242 324.402 222.2 312.169 211 320.569C199.8 328.969 207 362.736 212 378.569L179.5 388.069C168 370.569 156 284.069 185 273.569Z" fill="#3B3B5F"/>
<path d="M278 169.569C311.6 162.369 332.667 170.569 339 175.569L377.5 196.569L402 219.069L439 260.569H483.5C482.7 264.569 486.167 274.902 488 279.569C470.833 284.236 432.6 291.869 417 285.069C401.4 278.269 380.833 256.569 372.5 246.569L324 321.069C306.4 318.269 262.333 285.569 242.5 269.569L286 207.569C279.167 208.069 263.1 209.469 253.5 211.069C243.9 212.669 231.833 206.402 227 203.069L186 172.569L204 151.069C216.667 158.402 242.7 173.369 245.5 174.569C249 176.069 256.5 177.569 278 169.569Z" fill="#471C36"/>
<path d="M410.5 142.569C409.7 148.569 404.833 154.736 402.5 157.069L396.5 155.069C390.167 162.736 383.618 175.74 389 185.069C396.5 198.069 459.5 207.069 462 230.569C450.5 223.569 430 218.069 407.5 220.569C386.34 222.92 361.5 207.204 356 206.069C350.5 204.934 343.5 197.569 338 189.569C332.5 181.569 336 177.569 339 175.569C342 173.569 347.1 138.369 351.5 131.569C361.575 115.998 388.144 108.213 402.5 122.569C410.5 130.569 411.5 135.069 410.5 142.569Z" fill="#2A1E33"/>
<path d="M396 173.069C398 169.869 400.833 160.736 402 156.569C401.333 152.736 399.2 144.669 396 143.069C392 141.069 391.5 141.569 384.5 143.069C378.9 144.269 364.167 153.902 357.5 158.569C355.833 165.569 356.3 180.869 371.5 186.069C390.5 192.569 393.5 177.069 396 173.069Z" fill="#F9865F"/>
<path d="M386.5 220.569L324.5 320.569" stroke="white" stroke-linecap="round"/>
<path d="M312 173.569L243.5 268.569" stroke="white" stroke-linecap="round"/>
<path d="M248 274.569C267.74 289.397 310.577 319.356 324 320.569" stroke="white" stroke-linecap="round"/>
<path d="M291.5 377.569L324 320.569" stroke="white"/>
<path d="M428 267.094C429.667 264.76 434.1 260.194 438.5 260.594" stroke="white" stroke-linecap="round"/>
<path d="M250 331.069C225.5 310.069 190.4 302.769 212 377.569" stroke="white" stroke-linecap="round"/>
<path d="M249 175.569C245.833 176.569 239.4 180.069 239 186.069" stroke="white" stroke-linecap="round"/>
<path d="M339.5 175.069C329.654 182.643 342.209 197.611 350 202.569" stroke="white" stroke-linecap="round"/>
<path d="M254.5 323.069C241.5 354.569 211 409.069 236.5 439.569" stroke="white" stroke-linecap="round"/>
<path d="M45.1337 411.215C67.1322 432.97 92.6294 440.739 120.435 446.194C138.878 449.798 157.634 451.294 176.319 452.169C184.68 452.555 193.035 452.792 201.382 453.001C210.405 453.215 219.421 453.387 228.319 454.992C234.815 456.159 241.674 457.896 247.333 461.785C252.808 465.539 255.882 472.136 252.58 478.492C251.036 481.201 248.926 483.547 246.395 485.368C238.326 491.694 228.957 495.455 222.594 503.986C220.424 506.917 218.309 511.849 219.664 515.236C222.991 523.51 238.431 525.788 245.462 526.547C265.038 528.639 277.238 527.358 291.083 524.492C312.357 520.072 329.968 511.285 346.185 502.21C351.005 499.51 356.045 497.153 360.899 494.403C361.715 493.928 361.818 495.705 361.218 496.091C353.344 501.199 344.87 505.133 336.91 509.997C329.5 514.498 321.635 518.202 313.446 521.047C297.145 526.761 287.359 529.769 268.754 530.912C264.116 531.199 253.221 530.992 248.584 530.63C240.826 530.184 233.147 528.826 225.706 526.584C221.228 525.16 215.409 521.436 214.412 516.097C213.277 510.045 216.107 504.677 219.964 500.152C223.811 495.919 228.28 492.294 233.217 489.404C236.581 487.192 242.051 483.856 244.858 481.019C255.471 470.245 243.475 462.934 233.303 460.232C225.378 458.285 217.264 457.213 209.106 457.034C201.005 456.822 192.425 456.999 184.375 456.712C165.944 456.287 147.559 454.686 129.332 451.919C120.422 450.489 109.205 448.065 100.243 445.705C71.4466 438.151 49.5178 422.778 41.3702 409.356C40.4661 407.866 39.1872 404.884 40.1029 404.559C41.5177 406.964 43.2058 409.198 45.1337 411.215Z" fill="#BA68C8"/>
<path d="M555.057 479.5C549.516 478.9 543.915 479.785 538.829 482.067C535.008 484.001 531.844 487.021 529.733 490.748C525.948 497.072 525.032 504.161 520.659 510.331C516.287 516.5 506.303 520.658 493.694 520.129C488.417 519.874 483.217 518.768 478.293 516.854C485.952 512.744 491.287 507.029 489.092 500.075C488.267 497.7 486.878 495.56 485.044 493.841C483.209 492.121 480.984 490.872 478.561 490.203C472.067 488.29 464.627 490.927 460.865 493.351C451.987 499.096 457.563 509.019 467.368 515.11C468.274 515.679 469.24 516.201 470.221 516.713C461.996 519.984 453.283 521.861 444.441 522.268C432.945 523.021 421.414 521.476 410.522 517.722C399.324 513.516 389.357 506.576 381.527 497.532C379.744 495.573 377.93 493.637 376.02 491.713C375.288 490.981 371.952 490.622 372.544 491.753C377.256 500.83 387.013 510.167 399.721 516.702C410.483 522.19 423.782 524.922 436.692 525.252C448.425 525.658 460.131 523.889 471.22 520.033C472.352 519.618 473.464 519.16 474.564 518.686C484.249 522.51 494.766 523.729 505.068 522.223C517.477 520.269 524.551 514.528 528.055 507.443C531.428 500.61 532.118 492.945 538.221 486.897C541.865 483.262 547.825 480.826 555.799 481.44C562.01 481.726 567.941 484.111 572.62 488.206C574.464 489.883 575.771 492.067 576.379 494.484C576.436 494.737 577.386 495.19 577.445 494.792C578.364 487.594 567.218 480.491 555.057 479.5ZM463.868 506.634C461.302 502.918 460.541 498.725 464.126 495.76C466.176 494.252 468.534 493.213 471.03 492.718C472.371 492.323 473.771 492.163 475.167 492.247C476.581 492.494 477.913 493.082 479.047 493.962C483.317 497.063 484.757 501.153 484.048 504.654C483.245 508.601 479.738 511.863 475.17 514.425C474.814 514.629 474.422 514.802 474.053 515.004C470.038 513.059 466.547 510.179 463.872 506.607L463.868 506.634Z" fill="#455A64"/>
<path d="M546.003 273.077L472.471 296.489C470.929 296.98 470.077 298.628 470.568 300.17L470.675 300.504C471.166 302.046 472.814 302.898 474.356 302.407L547.887 278.996C549.429 278.505 550.281 276.857 549.79 275.315L549.684 274.981C549.193 273.438 547.545 272.586 546.003 273.077Z" fill="#263238"/>
<path d="M551.455 221.772L501.791 237.584C500.909 237.868 500.155 238.453 499.662 239.238C499.169 240.023 498.969 240.956 499.096 241.874L506.147 292.285L560.231 275.066C561.114 274.787 561.87 274.204 562.364 273.421C562.858 272.638 563.058 271.704 562.929 270.787L556.51 224.971C556.431 224.407 556.23 223.868 555.921 223.39C555.612 222.912 555.203 222.507 554.722 222.203C554.242 221.898 553.7 221.702 553.136 221.628C552.572 221.553 551.998 221.603 551.455 221.772Z" fill="#263238"/>
<path d="M502.75 237.279C502.901 237.231 504.845 249.304 507.091 264.19C509.337 279.076 511.013 291.163 510.855 291.19C510.697 291.216 508.76 279.165 506.514 264.279C504.268 249.393 502.592 237.306 502.75 237.279Z" fill="#455A64"/>
<path d="M537.026 255.027C537.002 255.66 536.795 256.272 536.429 256.79C536.064 257.307 535.556 257.707 534.967 257.941C534.379 258.175 533.735 258.233 533.114 258.108C532.493 257.983 531.922 257.68 531.469 257.237C531.017 256.793 530.704 256.228 530.567 255.609C530.43 254.991 530.476 254.346 530.699 253.753C530.921 253.16 531.312 252.644 531.822 252.269C532.332 251.894 532.941 251.675 533.573 251.639C534.023 251.631 534.471 251.712 534.889 251.879C535.307 252.046 535.688 252.294 536.009 252.609C536.331 252.925 536.586 253.301 536.761 253.716C536.936 254.131 537.026 254.577 537.026 255.027Z" fill="white"/>
<path d="M606.781 239.182C606.781 239.182 601.326 240.919 594.61 243.057C601.326 240.919 606.774 239.161 606.781 239.182Z" fill="#263238"/>
<path d="M609.628 239.51C609.628 239.51 604.174 241.247 597.458 243.385C604.174 241.247 609.621 239.489 609.628 239.51Z" fill="#263238"/>
<path d="M140.998 141.028C-95.0004 83.5277 48.0984 318.028 202.498 356.028" stroke="white" stroke-width="2" stroke-linecap="round"/>
<circle cx="202" cy="357" r="5" fill="white"/>
<circle cx="510" cy="416" r="5" fill="white"/>
<circle cx="162" cy="204" r="5" fill="white"/>
<path d="M76.5323 211.774L131.426 180.076C131.547 180.033 131.651 179.954 131.726 179.85C131.8 179.745 131.839 179.62 131.839 179.492C131.839 179.364 131.8 179.239 131.726 179.134C131.651 179.029 131.547 178.95 131.426 178.908L126.351 175.988C126.037 175.83 125.69 175.747 125.338 175.747C124.986 175.747 124.639 175.83 124.325 175.988L69.4137 207.657C69.2928 207.699 69.188 207.778 69.1139 207.883C69.0398 207.988 69 208.113 69 208.241C69 208.369 69.0398 208.494 69.1139 208.599C69.188 208.703 69.2928 208.782 69.4137 208.825L74.506 211.745C74.818 211.907 75.1638 211.995 75.5157 212C75.8676 212.005 76.2157 211.927 76.5323 211.774Z" fill="#E0E0E0"/>
<path d="M129.919 57.6926L80.4217 86.2722C79.6859 86.7524 79.0735 87.3991 78.6342 88.1601C78.1949 88.921 77.941 89.7747 77.8931 90.652V208.071C77.8931 209.683 79.026 210.337 80.4217 209.531L129.919 180.952C130.656 180.473 131.269 179.826 131.709 179.065C132.148 178.304 132.401 177.45 132.448 176.572V59.1525C132.448 57.5407 131.321 56.8867 129.919 57.6926Z" fill="#455A64"/>
<path d="M80.4217 86.2722L129.919 57.6926C131.169 56.9684 132.203 57.4181 132.413 58.6736C132.296 57.8843 132.013 57.1285 131.584 56.4562C131.154 55.7838 130.587 55.2101 129.919 54.7727L127.864 53.6048C127.08 53.2072 126.214 53 125.335 53C124.456 53 123.59 53.2072 122.806 53.6048L73.3031 82.161C72.5575 82.6285 71.9427 83.2775 71.5161 84.0473L78.6347 88.1351C79.0611 87.3714 79.6764 86.73 80.4217 86.2722Z" fill="#37474F"/>
<path d="M70.7627 203.96C70.8106 204.838 71.0645 205.691 71.5038 206.452C71.9431 207.213 72.5555 207.86 73.2913 208.34L75.3527 209.508C76.0662 209.865 76.847 210.067 77.644 210.101C78.4411 210.136 79.2363 210.001 79.9778 209.707C78.8098 210.162 77.8813 209.49 77.8813 208.048V90.652C77.9106 89.771 78.166 88.9122 78.623 88.1584L71.5043 84.0706C71.0537 84.8187 70.7987 85.6682 70.7627 86.5408V203.96Z" fill="#263238"/>
<path d="M81.7821 101.917L128.576 74.9081C129.417 74.4292 130.094 74.8205 130.094 75.784V162.691C130.066 163.218 129.914 163.73 129.65 164.187C129.386 164.644 129.018 165.031 128.576 165.319L81.7996 192.327C80.9587 192.812 80.2812 192.421 80.2812 191.452V104.545C80.3078 104.02 80.4575 103.508 80.7182 103.052C80.9789 102.595 81.3434 102.206 81.7821 101.917Z" fill="white"/>
<path d="M105.17 76.4323C104.912 76.6018 104.697 76.8297 104.543 77.0974C104.389 77.3652 104.3 77.6654 104.283 77.9739C104.283 78.5579 104.68 78.774 105.17 78.4878C105.43 78.3193 105.645 78.0917 105.8 77.8237C105.954 77.5557 106.042 77.255 106.058 76.9461C106.058 76.3797 105.661 76.1519 105.17 76.4323Z" fill="#37474F"/>
<path d="M105.17 182.978C104.149 183.646 103.3 184.545 102.692 185.602C102.083 186.659 101.732 187.845 101.667 189.063C101.667 191.3 103.237 192.211 105.17 191.089C106.191 190.421 107.04 189.522 107.649 188.465C108.257 187.408 108.609 186.223 108.674 185.004C108.686 182.768 107.109 181.857 105.17 182.978Z" fill="#37474F"/>
<path d="M96.7671 85.4722C96.2538 85.8129 95.8279 86.2694 95.5235 86.805C95.2192 87.3406 95.0451 87.9403 95.0151 88.5555C95.0151 89.6885 95.8093 90.1498 96.7671 89.5833C97.2857 89.2459 97.7173 88.7907 98.0269 88.2549C98.3364 87.7191 98.515 87.1178 98.5482 86.5C98.5482 85.3671 97.754 84.9057 96.7671 85.4722Z" fill="#37474F"/>
<path d="M101.129 85.0867C101.129 85.8459 101.713 86.1321 102.397 85.7291L114.076 78.9726C114.438 78.7466 114.741 78.4384 114.961 78.0731C115.182 77.7078 115.312 77.2957 115.343 76.8703C115.343 76.1169 114.759 75.8308 114.076 76.2337L102.397 82.9903C102.036 83.2157 101.733 83.5229 101.513 83.8871C101.292 84.2514 101.161 84.6623 101.129 85.0867Z" fill="#37474F"/>
<path d="M74.7101 105.678C75.1245 105.948 75.4695 106.311 75.717 106.74C75.9646 107.168 76.1078 107.648 76.135 108.142C76.135 109.053 75.4984 109.421 74.7101 108.965C74.2971 108.694 73.9535 108.33 73.707 107.902C73.4605 107.474 73.318 106.994 73.291 106.501C73.291 105.596 73.9275 105.228 74.7101 105.678Z" fill="#37474F"/>
<path d="M74.7101 116.645C75.1245 116.915 75.4695 117.278 75.717 117.707C75.9646 118.135 76.1078 118.615 76.135 119.109C76.135 120.014 75.4984 120.382 74.7101 119.932C74.2971 119.661 73.9535 119.297 73.707 118.869C73.4605 118.441 73.318 117.961 73.291 117.468C73.291 116.557 73.9275 116.189 74.7101 116.645Z" fill="#37474F"/>
<path d="M74.2667 105.9C74.6811 106.169 75.0261 106.533 75.2736 106.961C75.5212 107.39 75.6644 107.87 75.6916 108.364C75.6916 109.269 75.0551 109.637 74.2667 109.187C73.8523 108.917 73.5073 108.554 73.2597 108.125C73.0122 107.697 72.869 107.217 72.8418 106.723C72.8476 105.812 73.4842 105.462 74.2667 105.9Z" fill="#455A64"/>
<path d="M74.2667 116.861C74.6819 117.131 75.0273 117.496 75.2749 117.925C75.5225 118.354 75.6653 118.836 75.6916 119.331C75.6916 120.236 75.0551 120.604 74.2667 120.148C73.8513 119.88 73.5056 119.516 73.2579 119.088C73.0102 118.659 72.8676 118.178 72.8418 117.684C72.8476 116.779 73.4842 116.411 74.2667 116.861Z" fill="#455A64"/>
<path d="M139.567 78.5346C139.567 77.5652 138.889 77.1739 138.048 77.6586L132.448 80.888L91.2722 104.667C90.8299 104.955 90.4619 105.343 90.198 105.799C89.9341 106.256 89.782 106.769 89.7539 107.295V194.179C89.7539 195.148 90.4313 195.539 91.2722 195.055L132.466 171.269L138.048 168.046C138.491 167.759 138.859 167.371 139.123 166.914C139.387 166.457 139.539 165.945 139.567 165.418V78.5346Z" fill="white"/>
<path d="M140.151 78.5346C140.187 78.2417 140.137 77.9445 140.006 77.6802C139.874 77.4158 139.668 77.196 139.413 77.0483C139.157 76.9006 138.864 76.8315 138.569 76.8497C138.274 76.8679 137.992 76.9725 137.756 77.1505L132.413 80.2398L90.9801 104.183C90.4466 104.519 90.0031 104.981 89.6877 105.527C89.3723 106.073 89.1946 106.688 89.1698 107.319V194.179C89.1463 194.47 89.2024 194.763 89.3319 195.025C89.4615 195.287 89.6597 195.509 89.9056 195.668C90.1147 195.789 90.3528 195.852 90.5946 195.849C90.937 195.838 91.2708 195.74 91.564 195.563L133.026 171.62L138.358 168.542C138.888 168.202 139.329 167.74 139.644 167.194C139.959 166.649 140.139 166.036 140.168 165.406L140.151 78.5346ZM132.425 170.621L131.946 170.902L91.0034 194.541C90.9346 194.594 90.8549 194.63 90.77 194.649C90.6852 194.667 90.5973 194.666 90.5129 194.646C90.437 194.599 90.3611 194.436 90.3611 194.167V107.295C90.3913 106.871 90.5174 106.46 90.7298 106.091C90.9422 105.723 91.2355 105.408 91.5874 105.17L132.489 81.5187L138.329 78.1375C138.397 78.0846 138.477 78.0477 138.562 78.0295C138.647 78.0114 138.735 78.0123 138.819 78.0323C138.895 78.0791 138.971 78.2426 138.971 78.5112V165.418C138.941 165.842 138.815 166.254 138.602 166.622C138.39 166.99 138.097 167.305 137.745 167.544L132.413 170.621H132.425Z" fill="#BA68C8"/>
<path d="M114.66 98.7225C119.916 95.6975 124.15 98.1385 124.15 104.206C124.15 110.273 119.898 117.637 114.66 120.639C109.422 123.641 105.17 121.223 105.17 115.161C105.17 109.1 109.422 101.753 114.66 98.7225Z" fill="#BA68C8"/>
<path d="M114.66 103.488C116.359 102.507 117.738 103.301 117.738 105.24C117.68 106.308 117.371 107.347 116.836 108.273C116.302 109.2 115.556 109.987 114.66 110.571C112.961 111.552 111.583 110.758 111.583 108.819C111.64 107.751 111.949 106.712 112.484 105.786C113.018 104.859 113.764 104.072 114.66 103.488Z" fill="#BA68C8"/>
<path d="M120.657 113.953C120.657 110.729 118.397 109.421 115.6 111.033L113.848 112.043C111.057 113.655 108.791 117.579 108.791 120.803V121.673C110.409 122.204 112.441 121.918 114.631 120.639C117.057 119.143 119.108 117.111 120.628 114.7L120.657 113.953Z" fill="#BA68C8"/>
<path opacity="0.7" d="M114.66 103.488C116.359 102.507 117.738 103.301 117.738 105.24C117.68 106.308 117.371 107.347 116.836 108.273C116.302 109.2 115.556 109.987 114.66 110.571C112.961 111.552 111.583 110.758 111.583 108.819C111.64 107.751 111.949 106.712 112.484 105.786C113.018 104.859 113.764 104.072 114.66 103.488Z" fill="white"/>
<path opacity="0.7" d="M120.657 113.953C120.657 110.729 118.397 109.421 115.6 111.033L113.848 112.043C111.057 113.655 108.791 117.579 108.791 120.803V121.673C110.409 122.204 112.441 121.918 114.631 120.639C117.057 119.143 119.108 117.111 120.628 114.7L120.657 113.953Z" fill="white"/>
<path d="M96.2998 133.983L108.511 126.934C109.095 126.613 109.521 126.87 109.521 127.518V127.921C109.502 128.272 109.401 128.614 109.226 128.918C109.05 129.223 108.805 129.481 108.511 129.673L96.2998 136.722C95.745 137.043 95.2896 136.78 95.2896 136.138V135.735C95.3085 135.384 95.4098 135.042 95.5854 134.738C95.7609 134.434 96.0057 134.175 96.2998 133.983Z" fill="#BA68C8"/>
<path opacity="0.1" d="M96.2998 133.983L108.511 126.934C109.095 126.613 109.521 126.87 109.521 127.518V127.921C109.502 128.272 109.401 128.614 109.226 128.918C109.05 129.223 108.805 129.481 108.511 129.673L96.2998 136.722C95.745 137.043 95.2896 136.78 95.2896 136.138V135.735C95.3085 135.384 95.4098 135.042 95.5854 134.738C95.7609 134.434 96.0057 134.175 96.2998 133.983Z" fill="black"/>
<path d="M95.7976 142.491L132.74 121.165C133.014 121.001 133.242 121.13 133.242 121.457V125.766C133.232 125.941 133.181 126.111 133.094 126.263C133.007 126.415 132.885 126.545 132.74 126.642L95.7976 147.969C95.5173 148.132 95.2896 147.998 95.2896 147.677V143.367C95.2996 143.192 95.3508 143.021 95.4391 142.869C95.5273 142.716 95.6501 142.587 95.7976 142.491Z" fill="#BA68C8"/>
<path opacity="0.2" d="M95.7976 142.491L132.74 121.165C133.014 121.001 133.242 121.13 133.242 121.457V125.766C133.232 125.941 133.181 126.111 133.094 126.263C133.007 126.415 132.885 126.545 132.74 126.642L95.7976 147.969C95.5173 148.132 95.2896 147.998 95.2896 147.677V143.367C95.2996 143.192 95.3508 143.021 95.4391 142.869C95.5273 142.716 95.6501 142.587 95.7976 142.491Z" fill="white"/>
<path d="M96.2998 153.155L108.511 146.106C109.095 145.785 109.521 146.048 109.521 146.69V147.093C109.503 147.444 109.402 147.786 109.226 148.09C109.051 148.395 108.806 148.653 108.511 148.845L96.2998 155.893C95.745 156.22 95.2896 155.958 95.2896 155.309V154.907C95.3094 154.556 95.4111 154.215 95.5866 153.911C95.762 153.606 96.0063 153.347 96.2998 153.155Z" fill="#BA68C8"/>
<path opacity="0.1" d="M96.2998 153.155L108.511 146.106C109.095 145.785 109.521 146.048 109.521 146.69V147.093C109.503 147.444 109.402 147.786 109.226 148.09C109.051 148.395 108.806 148.653 108.511 148.845L96.2998 155.893C95.745 156.22 95.2896 155.958 95.2896 155.309V154.907C95.3094 154.556 95.4111 154.215 95.5866 153.911C95.762 153.606 96.0063 153.347 96.2998 153.155Z" fill="black"/>
<path d="M95.7976 161.663L132.74 140.336C133.014 140.173 133.242 140.307 133.242 140.628V144.938C133.232 145.113 133.181 145.283 133.094 145.435C133.007 145.587 132.885 145.717 132.74 145.814L95.7976 167.141C95.5173 167.304 95.2896 167.176 95.2896 166.849V162.539C95.2996 162.363 95.3508 162.193 95.4391 162.04C95.5273 161.888 95.6501 161.759 95.7976 161.663Z" fill="#BA68C8"/>
<path opacity="0.2" d="M95.7976 161.663L132.74 140.336C133.014 140.173 133.242 140.307 133.242 140.628V144.938C133.232 145.113 133.181 145.283 133.094 145.435C133.007 145.587 132.885 145.717 132.74 145.814L95.7976 167.141C95.5173 167.304 95.2896 167.176 95.2896 166.849V162.539C95.2996 162.363 95.3508 162.193 95.4391 162.04C95.5273 161.888 95.6501 161.759 95.7976 161.663Z" fill="white"/>
<path d="M110.531 164.11L125.131 155.695C125.715 155.368 126.147 155.631 126.147 156.279V160.787C126.128 161.139 126.026 161.481 125.849 161.785C125.672 162.09 125.426 162.348 125.131 162.539L110.531 170.96C109.947 171.281 109.521 171.018 109.521 170.376V165.862C109.541 165.511 109.643 165.17 109.819 164.866C109.994 164.562 110.238 164.303 110.531 164.11Z" fill="#BA68C8"/>
<path opacity="0.1" d="M110.531 164.11L125.131 155.695C125.715 155.368 126.147 155.631 126.147 156.279V160.787C126.128 161.139 126.026 161.481 125.849 161.785C125.672 162.09 125.426 162.348 125.131 162.539L110.531 170.96C109.947 171.281 109.521 171.018 109.521 170.376V165.862C109.541 165.511 109.643 165.17 109.819 164.866C109.994 164.562 110.238 164.303 110.531 164.11Z" fill="black"/>
<rect x="157" y="221" width="142" height="32" rx="10" fill="#6F87D6"/>
<path d="M174 233H246" stroke="white" stroke-width="4" stroke-linecap="round"/>
<path d="M171.996 240.492H288" stroke="#D1DBF5" stroke-opacity="0.5" stroke-width="2"/>
<rect x="457" y="94" width="25" height="25" fill="#FFF289"/>
<rect x="288" y="112" width="15" height="15" fill="#BD3638"/>
<rect x="447" y="383" width="20" height="20" fill="#8B7BF1"/>
<path d="M507 183L515.66 198H498.34L507 183Z" fill="#BA68C8"/>
<path d="M337.5 409L343.995 420.25H331.005L337.5 409Z" fill="#C7C7C7"/>
<circle cx="551" cy="420" r="10" fill="#EBB376"/>
<circle cx="187" cy="88" r="5" fill="#7AE667"/>
<circle cx="329.5" cy="483.5" r="2.5" fill="white"/>
<circle cx="490.5" cy="325.5" r="2.5" fill="white"/>
<circle cx="141.5" cy="409.5" r="2.5" fill="white"/>
<path d="M397.5 284C411.5 290.167 435.6 308.9 420 334.5C407.553 352.152 391.318 353.458 377 348.758C386.2 334.565 378.167 328.339 373 327L397.5 284Z" fill="url(#paint0_linear_14_2)"/>
<path d="M388 390L421 334C395 366.8 362.833 346.333 350 332L308 404.5C313.667 408.667 329.2 417.8 346 421C362.8 424.2 381 401.667 388 390Z" fill="url(#paint1_linear_14_2)"/>
<path d="M405.5 352C379.1 362 359.167 347.833 352.5 339.5L313.5 404C314.833 406 321.2 411.1 336 415.5C362 419.5 378.167 401.167 383 391.5L405.5 352Z" fill="white"/>
<path d="M309.5 401C322.5 419.5 355.2 444 382 394" stroke="white"/>
<path d="M349.5 332C367.833 348.167 394.5 366 420.5 333.5" stroke="white" stroke-linecap="round"/>
<path d="M373 327C378.167 328.333 386.2 334.5 377 348.5" stroke="white" stroke-linecap="round"/>
<path d="M399 295.5C405.333 298 418.1 307.1 418.5 323.5" stroke="white" stroke-linecap="round"/>
<path d="M402 347C406 344.167 412.8 335.4 408 323" stroke="white" stroke-linecap="round"/>
<path d="M163.79 205.304C148.957 195.971 126.29 195.704 154.29 269.304C182.29 342.904 259.624 414.637 294.791 441.304C325.457 463.137 385.391 488.904 379.791 417.304C445.291 457.804 605.791 398.304 545.791 337.304" stroke="white" stroke-width="2" stroke-linecap="round"/>
<path d="M71.0079 317.5C70.6745 334.667 80.8079 372.5 124.008 386.5" stroke="white" stroke-linecap="round"/>
<path d="M103.508 246C101.108 279.2 142.841 303.833 164.008 312L126.008 385.5C72.5078 358.5 72.0079 327.198 72.0078 317C72.0077 298.5 96.0078 248 103.508 246Z" fill="url(#paint2_linear_14_2)"/>
<path d="M101.008 259C102.208 282.6 139.174 305.167 157.508 313.5L124.508 379.5C92.1171 367.354 71.2877 332.013 80.5077 299.5C84.341 287.167 93.8077 261.8 101.008 259Z" fill="white"/>
<path d="M119.297 241.635C110.464 239.468 95.2975 241.635 105.297 267.635C110.297 280.635 120.756 291.343 131.797 299.448C139.631 285.677 155.197 258.135 154.797 258.135C154.397 258.135 132.297 246.635 119.297 241.635Z" fill="url(#paint3_linear_14_2)"/>
<path d="M161.797 315.635C154.464 313.052 142.839 307.552 131.797 299.448M131.797 299.448C120.756 291.343 110.297 280.635 105.297 267.635C95.2975 241.635 110.464 239.468 119.297 241.635C132.297 246.635 154.397 258.135 154.797 258.135C155.197 258.135 139.631 285.677 131.797 299.448Z" stroke="url(#paint4_linear_14_2)"/>
<path d="M117.008 253.5C122.008 253.833 133.508 256.2 139.508 263" stroke="white" stroke-linecap="round"/>
<path d="M105.508 249.5C105.674 258.5 111.708 280.3 134.508 295.5" stroke="white" stroke-linecap="round"/>
<path d="M471 436L555 395" stroke="white" stroke-width="2" stroke-linecap="round"/>
<path d="M351 64.5C378 69.3333 434.9 82.6 446.5 97" stroke="white" stroke-linecap="round"/>
<rect x="436.564" y="130" width="68" height="21" rx="2" transform="rotate(30.2037 436.564 130)" fill="white"/>
<rect x="437.067" y="135" width="18.4354" height="12.0608" transform="rotate(30.2037 437.067 135)" fill="#FF6D66"/>
<rect x="456.067" y="146" width="18.4354" height="12.0608" transform="rotate(30.2037 456.067 146)" fill="#FAD8B0"/>
<rect x="475.067" y="158" width="18.4354" height="12.0608" transform="rotate(30.2037 475.067 158)" fill="#A0C6F4"/>
<rect x="540.828" y="74.8118" width="68" height="21" rx="2" transform="rotate(77.8864 540.828 74.8118)" fill="white"/>
<rect x="537.469" y="78.5498" width="18.4354" height="12.0608" transform="rotate(77.8864 537.469 78.5498)" fill="#FF6D66"/>
<rect x="542.127" y="100.005" width="18.4354" height="12.0608" transform="rotate(77.8864 542.127 100.005)" fill="#91BA83"/>
<rect x="546.045" y="122.133" width="18.4354" height="12.0608" transform="rotate(77.8864 546.045 122.133)" fill="#FAD8B0"/>
<rect x="518.604" y="94.3026" width="68" height="21" rx="2" transform="rotate(61.3905 518.604 94.3026)" fill="white"/>
<rect x="516.445" y="98.8404" width="18.4354" height="12.0608" transform="rotate(61.3905 516.445 98.8404)" fill="#FF6D66"/>
<rect x="527.003" y="118.09" width="18.4354" height="12.0608" transform="rotate(61.3905 527.003 118.09)" fill="#FAD8B0"/>
<rect x="537.043" y="138.194" width="18.4354" height="12.0608" transform="rotate(61.3905 537.043 138.194)" fill="#A0C6F4"/>
<rect x="82.0957" y="410.255" width="68" height="21" rx="2" transform="rotate(76.071 82.0957 410.255)" fill="white"/>
<rect x="78.8569" y="414.098" width="18.4354" height="12.0608" transform="rotate(76.071 78.8569 414.098)" fill="#FF6D66"/>
<rect x="84.1924" y="435.394" width="18.4354" height="12.0608" transform="rotate(76.071 84.1924 435.394)" fill="#FAD8B0"/>
<rect x="88.8096" y="457.387" width="18.4354" height="12.0608" transform="rotate(76.071 88.8096 457.387)" fill="#A0C6F4"/>
<rect x="188.132" y="517.59" width="72" height="7.46361" transform="rotate(-14.4619 188.132 517.59)" stroke="white"/>
<path d="M177.787 510.596L178.987 517.724" stroke="white" stroke-width="0.5" stroke-linecap="round"/>
<path d="M174.563 514.575L181.691 513.374" stroke="white" stroke-width="0.5" stroke-linecap="round"/>
<path d="M185.782 521.181L181.477 521.862" stroke="white" stroke-width="0.5" stroke-linecap="round"/>
<path d="M183.402 519.213L184.083 523.518" stroke="white" stroke-width="0.5" stroke-linecap="round"/>
<path d="M184.928 508.001L185.158 511.415" stroke="white" stroke-width="0.5" stroke-linecap="round"/>
<path d="M183.223 509.724L186.637 509.494" stroke="white" stroke-width="0.5" stroke-linecap="round"/>
<rect x="-0.314607" y="-0.660306" width="36.3448" height="4.31557" transform="matrix(-0.930224 -0.366992 0.301011 -0.953621 65.238 55.1362)" stroke="white"/>
<path d="M69.123 63.878L70.8941 59.7263" stroke="white" stroke-width="0.5" stroke-linecap="round"/>
<path d="M72.4268 63.1288L67.7698 60.8755" stroke="white" stroke-width="0.5" stroke-linecap="round"/>
<path d="M68.0581 55.2103L70.8556 56.5937" stroke="white" stroke-width="0.5" stroke-linecap="round"/>
<path d="M68.7876 57.1815L69.8832 54.6915" stroke="white" stroke-width="0.5" stroke-linecap="round"/>
<path d="M63.9717 62.3365L65.0255 60.4863" stroke="white" stroke-width="0.5" stroke-linecap="round"/>
<path d="M65.5864 62.1371L63.4763 60.8803" stroke="white" stroke-width="0.5" stroke-linecap="round"/>
<path d="M514 423L524.5 430.5L519 432L515 436L514 423Z" stroke="white" stroke-linecap="round"/>
<path d="M557 168C559.333 169 564.7 172.3 567.5 177.5" stroke="white" stroke-linecap="round"/>
<path d="M564.5 118L578 112.5" stroke="#FF6D66" stroke-linecap="round"/>
<path d="M141 495.5L166.5 486" stroke="white" stroke-linecap="round"/>
<path d="M240.5 91.1841L248 99.1841" stroke="white" stroke-linecap="round"/>
<circle cx="221" cy="81.1841" r="3" stroke="white"/>
<path d="M269.723 74.6913C242.961 64.5883 220.205 70.1152 211.044 74.6413C210.389 74.9646 210 75.6377 210 76.3677V105.315C210 106.833 211.679 107.892 213.139 107.478C224.75 104.189 253.202 104.72 268.89 105.564C270.04 105.626 271 104.712 271 103.56V76.5453C271 75.7239 270.491 74.9814 269.723 74.6913Z" stroke="white" stroke-linecap="round"/>
<path d="M232 83.5L218 100H263.5V88.5L252.5 80.5L240.5 91L232 83.5Z" stroke="white" stroke-linecap="round"/>
<path d="M418.896 480.019L411.328 476.862" stroke="white" stroke-linecap="round"/>
<path d="M433.682 481.89C433.3 480.91 433.855 479.688 435.062 479.218C436.269 478.748 437.504 479.272 437.886 480.252C438.268 481.232 437.713 482.454 436.506 482.924C435.299 483.394 434.063 482.87 433.682 481.89Z" stroke="white"/>
<path d="M402.061 499.283C423.815 498.251 438.841 488.42 444.548 482.79C445.089 482.257 445.229 481.455 444.954 480.746L437.925 462.702C437.387 461.321 435.512 460.902 434.288 461.736C426.352 467.145 406.332 474.579 394.769 478.465C393.682 478.831 393.124 480.027 393.54 481.096L400.134 498.022C400.441 498.811 401.216 499.323 402.061 499.283Z" stroke="white" stroke-linecap="round"/>
<path d="M427.5 483L433 468L400 481L403 488.5L413 490.5L418.5 480L427.5 483Z" stroke="white" stroke-linecap="round"/>
</g>
<defs>
<linearGradient id="paint0_linear_14_2" x1="378" y1="335" x2="425" y2="322" gradientUnits="userSpaceOnUse">
<stop stop-color="#973489"/>
<stop offset="1" stop-color="#6231AD"/>
</linearGradient>
<linearGradient id="paint1_linear_14_2" x1="339.5" y1="349.5" x2="395" y2="376.5" gradientUnits="userSpaceOnUse">
<stop stop-color="#9E3585"/>
<stop offset="1" stop-color="#6231AD"/>
</linearGradient>
<linearGradient id="paint2_linear_14_2" x1="87.0083" y1="270" x2="142.008" y2="350" gradientUnits="userSpaceOnUse">
<stop stop-color="#973489"/>
<stop offset="1" stop-color="#6231AD"/>
</linearGradient>
<linearGradient id="paint3_linear_14_2" x1="111.297" y1="250.135" x2="143.797" y2="281.135" gradientUnits="userSpaceOnUse">
<stop stop-color="#8E338F"/>
<stop offset="1" stop-color="#6C31A6"/>
</linearGradient>
<linearGradient id="paint4_linear_14_2" x1="110.297" y1="248.135" x2="161.797" y2="315.635" gradientUnits="userSpaceOnUse">
<stop stop-color="#973489"/>
<stop offset="1" stop-color="#6231AD"/>
</linearGradient>
<clipPath id="clip0_14_2">
<rect width="600" height="600" fill="white"/>
</clipPath>
</defs>
</svg>
