<svg width="30" height="30" viewBox="0 0 30 30" fill="none" xmlns="http://www.w3.org/2000/svg">
<path d="M7.89375 7.72C7.58125 6.9225 7.59375 6.01125 7.7325 5.1775C8.68744 5.46445 9.58445 5.91719 10.3825 6.515C10.7325 6.7825 11.1912 6.86875 11.6187 6.74C12.7155 6.41103 13.8549 6.24592 15 6.25C16.2012 6.25 17.3425 6.425 18.3787 6.73875C18.8062 6.86875 19.265 6.78125 19.6137 6.51375C20.4114 5.91607 21.308 5.46334 22.2625 5.17625C22.4012 6.01 22.4125 6.92125 22.1025 7.7175C21.915 8.1975 22.0087 8.75 22.3625 9.1425C23.2675 10.1463 23.75 11.3 23.75 12.5C23.75 15.1425 21.2875 17.7338 17.3325 18.5225C16.3425 18.72 15.9562 19.9663 16.7137 20.68C17.2 21.1375 17.5 21.7825 17.5 22.5V26.25C17.5 26.5815 17.6317 26.8995 17.8661 27.1339C18.1005 27.3683 18.4185 27.5 18.75 27.5C19.0815 27.5 19.3995 27.3683 19.6339 27.1339C19.8683 26.8995 20 26.5815 20 26.25V22.5C20 21.7875 19.85 21.11 19.5825 20.4963C23.3537 19.1875 26.25 16.2413 26.25 12.5C26.25 10.8163 25.645 9.26875 24.6412 7.9725C24.9037 6.9475 24.88 5.915 24.78 5.1225C24.6912 4.4125 24.5675 3.4825 24.0675 2.9275C23.3237 2.10375 22.0925 2.58875 21.2175 2.8875C20.2784 3.20403 19.3853 3.64324 18.5612 4.19375C17.3976 3.89635 16.201 3.74725 15 3.75C13.7575 3.75 12.5587 3.90625 11.4362 4.195C10.6122 3.64449 9.71908 3.20528 8.78 2.88875C7.905 2.58875 6.6725 2.10375 5.92875 2.9275C5.41875 3.4925 5.3125 4.34875 5.22125 5.07625L5.215 5.12375C5.115 5.9175 5.0925 6.95125 5.355 7.9775C4.355 9.2725 3.75 10.8175 3.75 12.5C3.75 16.24 6.64625 19.1875 10.4175 20.4963C10.145 21.1205 10.0029 21.7939 10 22.475L9.79 22.5175C8.89375 22.6413 8.32 22.53 7.93 22.365C6.98 21.9625 6.49 20.9488 5.8925 20.1738C5.52 19.6925 4.9775 19.0913 4.145 18.8138C3.98922 18.7619 3.82474 18.7412 3.66097 18.7529C3.4972 18.7646 3.33733 18.8084 3.1905 18.8819C2.89396 19.0303 2.66851 19.2904 2.56375 19.605C2.45899 19.9196 2.4835 20.263 2.63188 20.5595C2.78027 20.856 3.04038 21.0815 3.355 21.1863C4.0525 21.4188 4.535 22.6138 4.9775 23.1438C5.44375 23.7038 6.06375 24.2888 6.9525 24.6663C7.805 25.0288 8.80625 25.1575 10 25.0113V26.25C10 26.5815 10.1317 26.8995 10.3661 27.1339C10.6005 27.3683 10.9185 27.5 11.25 27.5C11.5815 27.5 11.8995 27.3683 12.1339 27.1339C12.3683 26.8995 12.5 26.5815 12.5 26.25V22.5C12.5 21.7825 12.8 21.1375 13.2862 20.68C14.045 19.965 13.6575 18.72 12.6675 18.5225C8.71125 17.7338 6.25 15.1425 6.25 12.5C6.25 11.3025 6.73125 10.1488 7.635 9.145C7.98875 8.7525 8.08125 8.2 7.89375 7.72Z" fill="white"/>
</svg>
